<svg xmlns="http://www.w3.org/2000/svg" width="11" height="7" viewBox="0 0 11 7"><g><g transform="rotate(-270 5.5 3.5)"><path fill="#313131" d="M4.077-.856a.45.45 0 0 0-.658 0l-.28.295a.513.513 0 0 0 0 .696l3.18 3.363-3.183 3.367A.504.504 0 0 0 3 7.213c0 .132.048.256.136.348l.279.295a.45.45 0 0 0 .658 0l3.791-4.009A.505.505 0 0 0 8 3.498a.505.505 0 0 0-.136-.35L4.077-.855"/><path fill="none" stroke="#313131" stroke-miterlimit="50" stroke-width=".5" d="M4.077-.856a.45.45 0 0 0-.658 0l-.28.295a.513.513 0 0 0 0 .696l3.18 3.363v0L3.137 6.865A.504.504 0 0 0 3 7.213c0 .132.048.256.136.348l.279.295a.45.45 0 0 0 .658 0l3.791-4.009A.505.505 0 0 0 8 3.498a.505.505 0 0 0-.136-.35L4.077-.855v0"/></g></g></svg>